<?xml version="1.0" encoding="utf-8"?>
<svg viewBox="0 0 100 125" xmlns="http://www.w3.org/2000/svg">
  <path d="M60.61,47.79h-2.3v-8.6a3,3,0,0,0-3-3,2,2,0,0,0-2,2v9.66H51V38.13a4.27,4.27,0,0,1,4.26-4.27,5.33,5.33,0,0,1,5.33,5.33Z"/>
  <path d="M67.9,51.91H65.59V42.78a2.49,2.49,0,1,0-5,0v9.13h-2.3V42.78a4.8,4.8,0,1,1,9.59,0Z"/>
  <path d="M75.19,54.91H72.88V45.78a2.49,2.49,0,1,0-5,0v9.13H65.59V45.78a4.8,4.8,0,1,1,9.6,0Z"/>
  <path d="M44.52,79.81,25.91,51.39a6.62,6.62,0,0,1,10.74-7.71l4.85,6.18V18.64a5.91,5.91,0,0,1,11.82,0V37.5H51V18.64a3.61,3.61,0,0,0-7.22,0V51.12a1.87,1.87,0,0,1-3.34,1.15L34.84,45.1a4.32,4.32,0,0,0-7,5L46.44,78.54Z"/>
  <path d="M59.61,19.24h-2.3a9.95,9.95,0,0,0-19.89,0h-2.3a12.25,12.25,0,0,1,24.49,0Z"/>
  <path d="M69.14,79.59,67,78.76l5.2-13.62a10.36,10.36,0,0,0,.69-3.73v-6.5h2.31v6.5A12.87,12.87,0,0,1,74.35,66Z"/>
  <path d="M71.71,93H41.88a3.48,3.48,0,0,1-3.47-3.47v-8A3.48,3.48,0,0,1,41.88,78H71.71a3.48,3.48,0,0,1,3.48,3.48v8A3.48,3.48,0,0,1,71.71,93ZM41.88,80.33a1.16,1.16,0,0,0-1.16,1.17v8a1.17,1.17,0,0,0,1.16,1.17H71.71a1.17,1.17,0,0,0,1.17-1.17v-8a1.17,1.17,0,0,0-1.17-1.17Z"/>
</svg>