<svg width="29" height="20" viewBox="0 0 29 20" fill="none" xmlns="http://www.w3.org/2000/svg">
<path d="M2.41667 12.1739C2.75231 12.1739 2.98727 12.029 3.12153 11.7391C3.25579 11.4493 3.25579 11.1594 3.12153 10.8696C2.98727 10.5797 2.75231 10.4348 2.41667 10.4348C2.08102 10.4348 1.84606 10.5797 1.71181 10.8696C1.57755 11.1594 1.57755 11.4493 1.71181 11.7391C1.84606 12.029 2.08102 12.1739 2.41667 12.1739ZM20.957 11.3859C20.8731 11.2681 20.7116 11.0417 20.4724 10.7065C20.2333 10.3714 20.0592 10.1268 19.9501 9.97283C19.841 9.81884 19.6816 9.59692 19.4718 9.30707C19.262 9.01721 19.0837 8.77717 18.9368 8.58696C18.79 8.39674 18.6201 8.18388 18.4271 7.94837C18.2341 7.71286 18.0453 7.49094 17.8607 7.28261L16.2873 9.18478C15.5909 10.0362 14.7161 10.4529 13.663 10.4348C12.6099 10.4167 11.7477 9.97283 11.0764 9.10326C10.5981 8.47826 10.361 7.76268 10.3652 6.95652C10.3694 6.15036 10.6149 5.43931 11.1016 4.82337L13.3294 2.02446C13.1448 1.92482 12.9308 1.85009 12.6875 1.80027C12.4442 1.75045 12.2449 1.72328 12.0896 1.71875C11.9344 1.71422 11.6973 1.71649 11.3785 1.72554C11.0596 1.7346 10.854 1.73913 10.7617 1.73913C9.98973 1.73913 9.32682 2.03804 8.773 2.63587L6.78429 4.78261H4.83333V12.1739C4.87529 12.1739 4.9634 12.1716 5.09766 12.1671C5.23192 12.1626 5.32422 12.1626 5.37457 12.1671C5.42491 12.1716 5.50673 12.1807 5.62001 12.1943C5.73329 12.2079 5.8193 12.2283 5.87804 12.2554C5.93678 12.2826 6.0102 12.3211 6.09831 12.3709C6.18642 12.4207 6.26403 12.4819 6.33116 12.5543L10.0694 16.5217C11.0344 17.5272 11.9868 18.0299 12.9267 18.0299C13.5812 18.0299 14.1056 17.817 14.5 17.3913C14.9783 17.5725 15.4503 17.5362 15.916 17.2826C16.3817 17.029 16.6859 16.644 16.8286 16.1277C17.4495 16.1821 17.9823 15.9828 18.4271 15.5299C18.5949 15.3668 18.7459 15.1608 18.8802 14.9117C19.0145 14.6626 19.0732 14.4339 19.0564 14.2255C19.1403 14.3161 19.3207 14.3614 19.5977 14.3614C19.9585 14.3614 20.2815 14.2663 20.5668 14.0761C20.8521 13.8859 21.0598 13.6458 21.1899 13.356C21.32 13.0661 21.3703 12.7423 21.3409 12.3845C21.3116 12.0267 21.1836 11.6938 20.957 11.3859ZM22.9583 12.1739H24.1667V5.21739H22.9961L21.02 2.77174C20.4661 2.08333 19.7571 1.73913 18.8928 1.73913H16.7908C16.044 1.73913 15.4314 2.04257 14.9531 2.64946L12.3225 5.95109C12.0875 6.25 11.9701 6.58967 11.9701 6.97011C11.9701 7.35054 12.0833 7.69022 12.3099 7.98913C12.6707 8.45109 13.1322 8.68659 13.6944 8.69565C14.2567 8.70471 14.7224 8.48279 15.0916 8.02989L17.5208 5.06793C17.7306 4.8596 17.9551 4.76223 18.1942 4.77582C18.4334 4.7894 18.6306 4.91168 18.7858 5.14266C18.941 5.37364 18.9767 5.62953 18.8928 5.91033C19.0271 6.08243 19.262 6.36775 19.5977 6.7663C19.9333 7.16485 20.185 7.47283 20.3529 7.69022C20.5962 8.0163 20.9423 8.49411 21.3913 9.12364C21.8402 9.75317 22.1108 10.1359 22.2031 10.2717C22.6395 10.8696 22.8912 11.5036 22.9583 12.1739ZM26.5833 12.1739C26.919 12.1739 27.1539 12.029 27.2882 11.7391C27.4225 11.4493 27.4225 11.1594 27.2882 10.8696C27.1539 10.5797 26.919 10.4348 26.5833 10.4348C26.2477 10.4348 26.0127 10.5797 25.8785 10.8696C25.7442 11.1594 25.7442 11.4493 25.8785 11.7391C26.0127 12.029 26.2477 12.1739 26.5833 12.1739ZM29 4.34783V13.0435C29 13.279 28.9203 13.4828 28.7609 13.6549C28.6014 13.827 28.4126 13.913 28.1944 13.913H22.7318C22.5052 14.5018 22.1612 14.9841 21.6997 15.3601C21.2381 15.736 20.7137 15.9692 20.1263 16.0598C19.8494 16.4946 19.5116 16.8637 19.1131 17.1671C18.7145 17.4706 18.2844 17.6766 17.8229 17.7853C17.4705 18.2654 17.032 18.6345 16.5076 18.8927C15.9831 19.1508 15.444 19.2618 14.8902 19.2255C14.3867 19.5335 13.8581 19.7124 13.3043 19.7622C12.7504 19.812 12.2155 19.7486 11.6994 19.572C11.1834 19.3954 10.6925 19.1531 10.2268 18.8451C9.76107 18.5371 9.32682 18.1703 8.92405 17.7446L5.31163 13.913H0.805556C0.587384 13.913 0.398582 13.827 0.239149 13.6549C0.0797164 13.4828 0 13.279 0 13.0435V3.91304C0 3.67754 0.0797164 3.47373 0.239149 3.30163C0.398582 3.12953 0.587384 3.04348 0.805556 3.04348H6.1046C6.22208 2.91667 6.41927 2.69928 6.69618 2.3913C6.97309 2.08333 7.17238 1.86594 7.29405 1.73913C7.41573 1.61232 7.60033 1.43116 7.84787 1.19565C8.09541 0.960145 8.30729 0.790308 8.48351 0.686141C8.65972 0.581975 8.8737 0.466486 9.12543 0.339674C9.37717 0.212862 9.6373 0.124547 9.90582 0.0747283C10.1743 0.0249094 10.4596 0 10.7617 0H12.2344C13.0651 0 13.8245 0.253623 14.5126 0.76087C15.2007 0.253623 15.9601 0 16.7908 0H18.8928C19.1865 0 19.4676 0.0271739 19.7361 0.0815217C20.0046 0.13587 20.2417 0.20154 20.4473 0.278533C20.6528 0.355525 20.8689 0.475543 21.0955 0.638587C21.3221 0.80163 21.5088 0.942029 21.6556 1.05978C21.8024 1.17754 21.9829 1.35643 22.1968 1.59647C22.4108 1.8365 22.5744 2.02672 22.6877 2.16712C22.801 2.30752 22.973 2.52491 23.2038 2.81929C23.4345 3.11368 23.6087 3.33333 23.7261 3.47826H28.1944C28.4126 3.47826 28.6014 3.56431 28.7609 3.73641C28.9203 3.90851 29 4.11232 29 4.34783Z" fill="#0382C8"/>
</svg>
